<svg width="53" height="58" viewBox="0 0 53 58" fill="none" xmlns="http://www.w3.org/2000/svg">
<g filter="url(#filter0_d_67_6514)">
<path d="M19.4482 14.8682C21.4811 8.2911 30.7903 8.2911 32.8232 14.8682L33.0957 15.748C33.4842 17.005 34.6463 17.8623 35.9619 17.8623H37.3545C44.0501 17.8625 46.9242 26.3601 41.6035 30.4248L40.0527 31.6094C39.0536 32.3726 38.6366 33.6787 39.0078 34.8799L39.4971 36.4639C41.509 42.9752 33.9753 48.23 28.5596 44.0928L27.957 43.6328C26.8818 42.8114 25.3897 42.8114 24.3145 43.6328L23.7119 44.0928C18.2962 48.23 10.7625 42.9752 12.7744 36.4639L13.2637 34.8799C13.6349 33.6787 13.2178 32.3726 12.2188 31.6094L10.668 30.4248C5.34724 26.3601 8.22141 17.8625 14.917 17.8623H16.3096C17.6252 17.8623 18.7873 17.005 19.1758 15.748L19.4482 14.8682Z" fill="#202020" stroke="white" stroke-width="4"/>
<path d="M24.5928 23.2643C25.0623 21.747 27.21 21.7472 27.6797 23.2643C28.0193 24.362 29.043 25.1071 30.1875 25.1071C31.8075 25.1073 32.4932 27.1506 31.2363 28.11L31.0684 28.2389C30.1697 28.9247 29.7938 30.0984 30.1279 31.1783L30.2158 31.4596C30.6765 32.9486 28.9539 34.1511 27.7148 33.2057C26.7831 32.4947 25.4904 32.4947 24.5586 33.2057C23.3195 34.1511 21.597 32.9486 22.0576 31.4596L22.1455 31.1783C22.4796 30.0984 22.1038 28.9247 21.2051 28.2389L21.0371 28.11C19.7802 27.1506 20.4659 25.1073 22.0859 25.1071C23.2304 25.1071 24.2532 24.362 24.5928 23.2643Z" fill="white" stroke="white"/>
</g>
<defs>
<filter id="filter0_d_67_6514" x="-9.77516e-05" y="6.0353" width="52.2722" height="51.436" filterUnits="userSpaceOnUse" color-interpolation-filters="sRGB">
<feFlood flood-opacity="0" result="BackgroundImageFix"/>
<feColorMatrix in="SourceAlpha" type="matrix" values="0 0 0 0 0 0 0 0 0 0 0 0 0 0 0 0 0 0 127 0" result="hardAlpha"/>
<feOffset dy="4"/>
<feGaussianBlur stdDeviation="2.95"/>
<feComposite in2="hardAlpha" operator="out"/>
<feColorMatrix type="matrix" values="0 0 0 0 0 0 0 0 0 0 0 0 0 0 0 0 0 0 0.33 0"/>
<feBlend mode="normal" in2="BackgroundImageFix" result="effect1_dropShadow_67_6514"/>
<feBlend mode="normal" in="SourceGraphic" in2="effect1_dropShadow_67_6514" result="shape"/>
</filter>
</defs>
</svg>
