<svg width="60" height="60" viewBox="0 0 60 60" fill="none" xmlns="http://www.w3.org/2000/svg">
<g filter="url(#filter0_d_67_6511)">
<circle cx="29.8999" cy="25.9" r="22" fill="white" stroke="white" stroke-width="4"/>
<path d="M49.8999 25.9C49.8999 28.5265 49.3826 31.1272 48.3775 33.5537C47.3724 35.9802 45.8992 38.185 44.042 40.0422C42.1849 41.8993 39.9801 43.3725 37.5536 44.3776C35.1271 45.3827 32.5263 45.9 29.8999 45.9C27.2735 45.9 24.6727 45.3827 22.2462 44.3776C19.8197 43.3725 17.6149 41.8993 15.7578 40.0422C13.9006 38.185 12.4274 35.9802 11.4223 33.5537C10.4172 31.1272 9.8999 28.5265 9.8999 25.9L29.8999 25.9H49.8999Z" fill="black"/>
</g>
<defs>
<filter id="filter0_d_67_6511" x="-9.77516e-05" y="2.43187e-05" width="59.8" height="59.8" filterUnits="userSpaceOnUse" color-interpolation-filters="sRGB">
<feFlood flood-opacity="0" result="BackgroundImageFix"/>
<feColorMatrix in="SourceAlpha" type="matrix" values="0 0 0 0 0 0 0 0 0 0 0 0 0 0 0 0 0 0 127 0" result="hardAlpha"/>
<feOffset dy="4"/>
<feGaussianBlur stdDeviation="2.95"/>
<feComposite in2="hardAlpha" operator="out"/>
<feColorMatrix type="matrix" values="0 0 0 0 0 0 0 0 0 0 0 0 0 0 0 0 0 0 0.33 0"/>
<feBlend mode="normal" in2="BackgroundImageFix" result="effect1_dropShadow_67_6511"/>
<feBlend mode="normal" in="SourceGraphic" in2="effect1_dropShadow_67_6511" result="shape"/>
</filter>
</defs>
</svg>
